<mxfile host="Electron" modified="2024-04-22T14:15:31.846Z" agent="Mozilla/5.0 (Windows NT 10.0; Win64; x64) AppleWebKit/537.36 (KHTML, like Gecko) draw.io/23.0.2 Chrome/120.0.6099.109 Electron/28.1.0 Safari/537.36" etag="wwDkCRePF8idxOUoBu7z" version="23.0.2" type="device">
  <diagram name="Page-1" id="CbdiUUv2GfKtMemn6Toz">
    <mxGraphModel dx="943" dy="572" grid="1" gridSize="10" guides="1" tooltips="1" connect="1" arrows="1" fold="1" page="1" pageScale="1" pageWidth="850" pageHeight="1100" math="0" shadow="0">
      <root>
        <mxCell id="0" />
        <mxCell id="1" parent="0" />
        <mxCell id="gOl_UAmJLn5SNEw1Qw3g-4" value="TV SERIES" style="swimlane;whiteSpace=wrap;html=1;" vertex="1" parent="1">
          <mxGeometry x="225" y="40" width="205" height="140" as="geometry" />
        </mxCell>
        <mxCell id="gOl_UAmJLn5SNEw1Qw3g-5" value="series_id" style="text;html=1;align=center;verticalAlign=middle;resizable=0;points=[];autosize=1;strokeColor=none;fillColor=none;" vertex="1" parent="gOl_UAmJLn5SNEw1Qw3g-4">
          <mxGeometry x="55" y="37" width="70" height="30" as="geometry" />
        </mxCell>
        <mxCell id="gOl_UAmJLn5SNEw1Qw3g-6" value="title" style="text;html=1;align=center;verticalAlign=middle;resizable=0;points=[];autosize=1;strokeColor=none;fillColor=none;" vertex="1" parent="gOl_UAmJLn5SNEw1Qw3g-4">
          <mxGeometry x="80" y="87" width="40" height="30" as="geometry" />
        </mxCell>
        <mxCell id="gOl_UAmJLn5SNEw1Qw3g-7" value="EPISODES" style="swimlane;whiteSpace=wrap;html=1;" vertex="1" parent="1">
          <mxGeometry x="530" y="10" width="180" height="160" as="geometry" />
        </mxCell>
        <mxCell id="gOl_UAmJLn5SNEw1Qw3g-8" value="episode_id" style="text;html=1;align=center;verticalAlign=middle;resizable=0;points=[];autosize=1;strokeColor=none;fillColor=none;" vertex="1" parent="gOl_UAmJLn5SNEw1Qw3g-7">
          <mxGeometry x="55" y="40" width="80" height="30" as="geometry" />
        </mxCell>
        <mxCell id="gOl_UAmJLn5SNEw1Qw3g-12" value="title" style="text;html=1;align=center;verticalAlign=middle;resizable=0;points=[];autosize=1;strokeColor=none;fillColor=none;" vertex="1" parent="gOl_UAmJLn5SNEw1Qw3g-7">
          <mxGeometry x="75" y="65" width="40" height="30" as="geometry" />
        </mxCell>
        <mxCell id="gOl_UAmJLn5SNEw1Qw3g-11" value="series_id" style="text;html=1;align=center;verticalAlign=middle;resizable=0;points=[];autosize=1;strokeColor=none;fillColor=none;" vertex="1" parent="gOl_UAmJLn5SNEw1Qw3g-7">
          <mxGeometry x="75" y="95" width="70" height="30" as="geometry" />
        </mxCell>
        <mxCell id="gOl_UAmJLn5SNEw1Qw3g-15" value="ACTORS" style="swimlane;whiteSpace=wrap;html=1;" vertex="1" parent="1">
          <mxGeometry x="10" y="298" width="150" height="140" as="geometry" />
        </mxCell>
        <mxCell id="gOl_UAmJLn5SNEw1Qw3g-16" value="DIRECTORS" style="swimlane;whiteSpace=wrap;html=1;" vertex="1" parent="1">
          <mxGeometry x="490" y="370" width="170" height="130" as="geometry" />
        </mxCell>
        <mxCell id="gOl_UAmJLn5SNEw1Qw3g-20" value="name" style="text;html=1;align=center;verticalAlign=middle;resizable=0;points=[];autosize=1;strokeColor=none;fillColor=none;" vertex="1" parent="gOl_UAmJLn5SNEw1Qw3g-16">
          <mxGeometry x="10" y="68" width="50" height="30" as="geometry" />
        </mxCell>
        <mxCell id="gOl_UAmJLn5SNEw1Qw3g-19" value="directors_id" style="text;html=1;align=center;verticalAlign=middle;resizable=0;points=[];autosize=1;strokeColor=none;fillColor=none;" vertex="1" parent="gOl_UAmJLn5SNEw1Qw3g-16">
          <mxGeometry x="10" y="30" width="90" height="30" as="geometry" />
        </mxCell>
        <mxCell id="gOl_UAmJLn5SNEw1Qw3g-17" value="actor_id" style="text;html=1;align=center;verticalAlign=middle;resizable=0;points=[];autosize=1;strokeColor=none;fillColor=none;" vertex="1" parent="1">
          <mxGeometry x="62" y="336" width="70" height="30" as="geometry" />
        </mxCell>
        <mxCell id="gOl_UAmJLn5SNEw1Qw3g-18" value="name" style="text;html=1;align=center;verticalAlign=middle;resizable=0;points=[];autosize=1;strokeColor=none;fillColor=none;" vertex="1" parent="1">
          <mxGeometry x="63" y="370" width="50" height="30" as="geometry" />
        </mxCell>
        <mxCell id="gOl_UAmJLn5SNEw1Qw3g-24" value="" style="edgeStyle=entityRelationEdgeStyle;fontSize=12;html=1;endArrow=ERmany;startArrow=ERmany;rounded=0;" edge="1" parent="1">
          <mxGeometry width="100" height="100" relative="1" as="geometry">
            <mxPoint x="430" y="140" as="sourcePoint" />
            <mxPoint x="530" y="40" as="targetPoint" />
          </mxGeometry>
        </mxCell>
        <mxCell id="gOl_UAmJLn5SNEw1Qw3g-25" value="" style="edgeStyle=entityRelationEdgeStyle;fontSize=12;html=1;endArrow=ERmany;startArrow=ERmany;rounded=0;" edge="1" parent="1">
          <mxGeometry width="100" height="100" relative="1" as="geometry">
            <mxPoint x="160" y="366" as="sourcePoint" />
            <mxPoint x="225" y="146" as="targetPoint" />
            <Array as="points">
              <mxPoint x="180" y="216" />
              <mxPoint x="180" y="336" />
              <mxPoint x="190" y="286" />
            </Array>
          </mxGeometry>
        </mxCell>
      </root>
    </mxGraphModel>
  </diagram>
</mxfile>
